<?xml version="1.0" encoding="UTF-8"?>
<svg width="12px" height="12px" viewBox="0 0 12 12" version="1.1" xmlns="http://www.w3.org/2000/svg" xmlns:xlink="http://www.w3.org/1999/xlink">
    <!-- Generator: Sketch 48.2 (47327) - http://www.bohemiancoding.com/sketch -->
    <title>cross-icon</title>
    <desc>Created with Sketch.</desc>
    <defs>
        <path d="M1314.2679,538.000253 L1318.71895,542.45383 C1318.81264,542.547307 1318.87879,542.648869 1318.91768,542.758264 C1318.95657,542.867658 1318.98434,542.984631 1319,543.109941 C1318.98434,543.219588 1318.95657,543.328477 1318.91768,543.437618 C1318.87879,543.54777 1318.81264,543.648827 1318.71895,543.743063 C1318.64042,543.821129 1318.5432,543.883785 1318.42604,543.929765 C1318.30862,543.977262 1318.20307,544 1318.10989,544 C1317.96924,544 1317.84829,543.976757 1317.74678,543.929765 C1317.64552,543.883279 1317.53997,543.820624 1317.43063,543.743063 L1313.00306,539.26599 L1308.52853,543.74281 C1308.4505,543.820877 1308.35278,543.883532 1308.23561,543.929513 C1308.1187,543.97701 1308.00532,543.999747 1307.89598,543.999747 C1307.77099,543.999747 1307.65786,543.976504 1307.55635,543.929513 C1307.45459,543.883027 1307.34879,543.820371 1307.23945,543.74281 C1307.17708,543.648575 1307.11849,543.547518 1307.0637,543.437366 C1307.00916,543.328224 1306.98946,543.219336 1307.00537,543.109689 C1306.98971,542.984884 1307.00916,542.867405 1307.0637,542.758011 C1307.11824,542.648617 1307.17708,542.547055 1307.23945,542.453577 L1311.73772,538.000253 L1307.23945,533.547181 C1307.17708,533.453198 1307.11849,533.351636 1307.0637,533.242242 C1307.0089,533.132848 1306.98946,533.015874 1307.00537,532.890816 C1306.98946,532.781422 1307.00916,532.672028 1307.0637,532.562634 C1307.11824,532.45324 1307.17708,532.351678 1307.23945,532.257948 C1307.34879,532.179881 1307.45459,532.117226 1307.55635,532.070487 C1307.65786,532.023496 1307.77099,532 1307.89598,532 C1308.00532,532 1308.1187,532.023496 1308.23561,532.070235 C1308.35278,532.117226 1308.4505,532.179629 1308.52853,532.257695 L1313.00306,536.734515 L1317.43063,532.257695 C1317.53997,532.179629 1317.64552,532.116973 1317.74678,532.070235 C1317.84829,532.023496 1317.96949,532 1318.10989,532 C1318.20307,532 1318.30862,532.023496 1318.42604,532.070235 C1318.5432,532.116973 1318.64093,532.179629 1318.71895,532.257695 C1318.81264,532.351425 1318.87879,532.452987 1318.91768,532.562382 C1318.95657,532.671776 1318.98434,532.78117 1319,532.890564 C1318.98434,533.015622 1318.95657,533.132848 1318.91768,533.242242 C1318.87879,533.351636 1318.81264,533.453198 1318.71895,533.547181 L1314.2679,538.000253 Z" id="path-1"></path>
    </defs>
    <g id="03.2.-Edit-Project" stroke="none" stroke-width="1" fill="none" fill-rule="evenodd" transform="translate(-1307.000000, -532.000000)">
        <g id="cross-icon" fill-rule="nonzero">
            <use fill="#494E52" fill-rule="evenodd" xlink:href="#path-1"></use>
            <use fill-opacity="0.3" fill="#FFFFFF" fill-rule="evenodd" xlink:href="#path-1"></use>
        </g>
    </g>
</svg>